<svg width="3840" height="2160" xmlns="http://www.w3.org/2000/svg" xmlns:xlink="http://www.w3.org/1999/xlink" version="1.1" baseProfile="full" viewBox="0 0 3840 2160">
<rect width="3840" height="2160" x="0" y="0" id="0" fill="none"></rect>
<path d="M4400.5 1100L4400.5 1565" transform="matrix(0.294,0,0,0.294,384,756.6316)" fill="none" stroke="rgb(200,200,200)" stroke-width="17.008463541666668" stroke-opacity="0.5"></path>
<path d="M0 0L6.6667 10L0 7.5L-6.6667 10L0 0Z" transform="matrix(-1,0,0,-1,1677.4737,1216.6842)" fill="rgb(200,200,200)" fill-opacity="0.5"></path>
<path d="M0.5 550L0.5 1015" transform="matrix(0.294,0,0,0.294,384,756.6316)" fill="none" stroke="rgb(200,200,200)" stroke-width="17.008463541666668" stroke-opacity="0.5"></path>
<path d="M0 0L6.6667 10L0 7.5L-6.6667 10L0 0Z" transform="matrix(-1,0,0,-1,384,1055)" fill="rgb(200,200,200)" fill-opacity="0.5"></path>
<path d="M0 550L489.9 1039.9" transform="matrix(0.294,0,0,0.294,384,756.6316)" fill="none" stroke="rgb(200,200,200)" stroke-width="17.008463541666668" stroke-opacity="0.5"></path>
<path d="M0 0L6.6667 10L0 7.5L-6.6667 10L0 0Z" transform="matrix(-0.707,0.707,-0.707,-0.707,528.0065,1062.3223)" fill="rgb(200,200,200)" fill-opacity="0.5"></path>
<path d="M2200.5 1650L2200.5 2115" transform="matrix(0.294,0,0,0.294,384,756.6316)" fill="none" stroke="rgb(200,200,200)" stroke-width="17.008463541666668" stroke-opacity="0.5"></path>
<path d="M0 0L6.6667 10L0 7.5L-6.6667 10L0 0Z" transform="matrix(-1,0,0,-1,1030.7368,1378.3684)" fill="rgb(200,200,200)" fill-opacity="0.5"></path>
<path d="M2200 1650L2689.9 2139.9" transform="matrix(0.294,0,0,0.294,384,756.6316)" fill="none" stroke="rgb(200,200,200)" stroke-width="17.008463541666668" stroke-opacity="0.5"></path>
<path d="M0 0L6.6667 10L0 7.5L-6.6667 10L0 0Z" transform="matrix(-0.707,0.707,-0.707,-0.707,1174.7434,1385.6908)" fill="rgb(200,200,200)" fill-opacity="0.5"></path>
<path d="M2200.5 1100L2200.5 1565" transform="matrix(0.294,0,0,0.294,384,756.6316)" fill="none" stroke="rgb(200,200,200)" stroke-width="17.008463541666668" stroke-opacity="0.5"></path>
<path d="M0 0L6.6667 10L0 7.5L-6.6667 10L0 0Z" transform="matrix(-1,0,0,-1,1030.7368,1216.6842)" fill="rgb(200,200,200)" fill-opacity="0.5"></path>
<path d="M1650.5 550L1650.5 1015" transform="matrix(0.294,0,0,0.294,384,756.6316)" fill="none" stroke="rgb(200,200,200)" stroke-width="17.008463541666668" stroke-opacity="0.5"></path>
<path d="M0 0L6.6667 10L0 7.5L-6.6667 10L0 0Z" transform="matrix(-1,0,0,-1,869.0526,1055)" fill="rgb(200,200,200)" fill-opacity="0.5"></path>
<path d="M1650 550L2162 1573.9" transform="matrix(0.294,0,0,0.294,384,756.6316)" fill="none" stroke="rgb(200,200,200)" stroke-width="17.008463541666668" stroke-opacity="0.5"></path>
<path d="M0 0L6.6667 10L0 7.5L-6.6667 10L0 0Z" transform="matrix(-0.894,0.447,-0.447,-0.894,1019.5565,1219.3235)" fill="rgb(200,200,200)" fill-opacity="0.5"></path>
<path d="M1650 550L2139.9 1039.9" transform="matrix(0.294,0,0,0.294,384,756.6316)" fill="none" stroke="rgb(200,200,200)" stroke-width="17.008463541666668" stroke-opacity="0.5"></path>
<path d="M0 0L6.6667 10L0 7.5L-6.6667 10L0 0Z" transform="matrix(-0.707,0.707,-0.707,-0.707,1013.0592,1062.3223)" fill="rgb(200,200,200)" fill-opacity="0.5"></path>
<path d="M3300.5 550L3300.5 1015" transform="matrix(0.294,0,0,0.294,384,756.6316)" fill="none" stroke="rgb(200,200,200)" stroke-width="17.008463541666668" stroke-opacity="0.5"></path>
<path d="M0 0L6.6667 10L0 7.5L-6.6667 10L0 0Z" transform="matrix(-1,0,0,-1,1354.1053,1055)" fill="rgb(200,200,200)" fill-opacity="0.5"></path>
<path d="M3300 550L3789.9 1039.9" transform="matrix(0.294,0,0,0.294,384,756.6316)" fill="none" stroke="rgb(200,200,200)" stroke-width="17.008463541666668" stroke-opacity="0.5"></path>
<path d="M0 0L6.6667 10L0 7.5L-6.6667 10L0 0Z" transform="matrix(-0.707,0.707,-0.707,-0.707,1498.1118,1062.3223)" fill="rgb(200,200,200)" fill-opacity="0.5"></path>
<path d="M4400.5 550L4400.5 1015" transform="matrix(0.294,0,0,0.294,384,756.6316)" fill="none" stroke="rgb(200,200,200)" stroke-width="17.008463541666668" stroke-opacity="0.5"></path>
<path d="M0 0L6.6667 10L0 7.5L-6.6667 10L0 0Z" transform="matrix(-1,0,0,-1,1677.4737,1055)" fill="rgb(200,200,200)" fill-opacity="0.5"></path>
<path d="M4400 550L4889.9 1039.9" transform="matrix(0.294,0,0,0.294,384,756.6316)" fill="none" stroke="rgb(200,200,200)" stroke-width="17.008463541666668" stroke-opacity="0.5"></path>
<path d="M0 0L6.6667 10L0 7.5L-6.6667 10L0 0Z" transform="matrix(-0.707,0.707,-0.707,-0.707,1821.4802,1062.3223)" fill="rgb(200,200,200)" fill-opacity="0.5"></path>
<path d="M4400 550L5423.9 1062" transform="matrix(0.294,0,0,0.294,384,756.6316)" fill="none" stroke="rgb(200,200,200)" stroke-width="17.008463541666668" stroke-opacity="0.5"></path>
<path d="M0 0L6.6667 10L0 7.5L-6.6667 10L0 0Z" transform="matrix(-0.447,0.894,-0.894,-0.447,1978.4814,1068.8197)" fill="rgb(200,200,200)" fill-opacity="0.5"></path>
<path d="M4400 550L5969.3 1073.1" transform="matrix(0.294,0,0,0.294,384,756.6316)" fill="none" stroke="rgb(200,200,200)" stroke-width="17.008463541666668" stroke-opacity="0.5"></path>
<path d="M0 0L6.6667 10L0 7.5L-6.6667 10L0 0Z" transform="matrix(-0.316,0.949,-0.949,-0.316,2138.8092,1072.0943)" fill="rgb(200,200,200)" fill-opacity="0.5"></path>
<path d="M4400 550L6517.5 1079.4" transform="matrix(0.294,0,0,0.294,384,756.6316)" fill="none" stroke="rgb(200,200,200)" stroke-width="17.008463541666668" stroke-opacity="0.5"></path>
<path d="M0 0L6.6667 10L0 7.5L-6.6667 10L0 0Z" transform="matrix(-0.243,0.97,-0.97,-0.243,2299.957,1073.9366)" fill="rgb(200,200,200)" fill-opacity="0.5"></path>
<path d="M4400 550L7066.6 1083.3" transform="matrix(0.294,0,0,0.294,384,756.6316)" fill="none" stroke="rgb(200,200,200)" stroke-width="17.008463541666668" stroke-opacity="0.5"></path>
<path d="M0 0L6.6667 10L0 7.5L-6.6667 10L0 0Z" transform="matrix(-0.196,0.981,-0.981,-0.196,2461.3802,1075.0971)" fill="rgb(200,200,200)" fill-opacity="0.5"></path>
<path d="M4400 550L7616.1 1086" transform="matrix(0.294,0,0,0.294,384,756.6316)" fill="none" stroke="rgb(200,200,200)" stroke-width="17.008463541666668" stroke-opacity="0.5"></path>
<path d="M0 0L6.6667 10L0 7.5L-6.6667 10L0 0Z" transform="matrix(-0.164,0.986,-0.986,-0.164,2622.9191,1075.89)" fill="rgb(200,200,200)" fill-opacity="0.5"></path>
<path d="M4400 550L8165.8 1088" transform="matrix(0.294,0,0,0.294,384,756.6316)" fill="none" stroke="rgb(200,200,200)" stroke-width="17.008463541666668" stroke-opacity="0.5"></path>
<path d="M0 0L6.6667 10L0 7.5L-6.6667 10L0 0Z" transform="matrix(-0.141,0.99,-0.99,-0.141,2784.5144,1076.4645)" fill="rgb(200,200,200)" fill-opacity="0.5"></path>
<path d="M4400 550L8715.6 1089.5" transform="matrix(0.294,0,0,0.294,384,756.6316)" fill="none" stroke="rgb(200,200,200)" stroke-width="17.008463541666668" stroke-opacity="0.5"></path>
<path d="M0 0L6.6667 10L0 7.5L-6.6667 10L0 0Z" transform="matrix(-0.124,0.992,-0.992,-0.124,2946.1404,1076.8991)" fill="rgb(200,200,200)" fill-opacity="0.5"></path>
<path d="M4400 550L9265.5 1090.6" transform="matrix(0.294,0,0,0.294,384,756.6316)" fill="none" stroke="rgb(200,200,200)" stroke-width="17.008463541666668" stroke-opacity="0.5"></path>
<path d="M0 0L6.6667 10L0 7.5L-6.6667 10L0 0Z" transform="matrix(-0.11,0.994,-0.994,-0.11,3107.7845,1077.2392)" fill="rgb(200,200,200)" fill-opacity="0.5"></path>
<path d="M4400 550L9815.4 1091.5" transform="matrix(0.294,0,0,0.294,384,756.6316)" fill="none" stroke="rgb(200,200,200)" stroke-width="17.008463541666668" stroke-opacity="0.5"></path>
<path d="M0 0L6.6667 10L0 7.5L-6.6667 10L0 0Z" transform="matrix(-0.1,0.995,-0.995,-0.1,3269.4399,1077.5124)" fill="rgb(200,200,200)" fill-opacity="0.5"></path>
<path d="M4400 550L10365.3 1092.3" transform="matrix(0.294,0,0,0.294,384,756.6316)" fill="none" stroke="rgb(200,200,200)" stroke-width="17.008463541666668" stroke-opacity="0.5"></path>
<path d="M0 0L6.6667 10L0 7.5L-6.6667 10L0 0Z" transform="matrix(-0.091,0.996,-0.996,-0.091,3431.1027,1077.7366)" fill="rgb(200,200,200)" fill-opacity="0.5"></path>
<path d="M550 1100.5L85 1100.5" transform="matrix(0.294,0,0,0.294,384,756.6316)" fill="none" stroke="rgb(200,200,200)" stroke-width="17.008463541666668" stroke-opacity="0.5"></path>
<path d="M0 0L6.6667 10L0 7.5L-6.6667 10L0 0Z" transform="matrix(0,-1,1,0,409,1080)" fill="rgb(200,200,200)" fill-opacity="0.5"></path>
<path d="M0.5 0L0.5 465" transform="matrix(0.294,0,0,0.294,384,756.6316)" fill="none" stroke="rgb(200,200,200)" stroke-width="17.008463541666668" stroke-opacity="0.5"></path>
<path d="M0 0L6.6667 10L0 7.5L-6.6667 10L0 0Z" transform="matrix(-1,0,0,-1,384,893.3158)" fill="rgb(200,200,200)" fill-opacity="0.5"></path>
<path d="M0 0L1023.9 512" transform="matrix(0.294,0,0,0.294,384,756.6316)" fill="none" stroke="rgb(200,200,200)" stroke-width="17.008463541666668" stroke-opacity="0.5"></path>
<path d="M0 0L6.6667 10L0 7.5L-6.6667 10L0 0Z" transform="matrix(-0.447,0.894,-0.894,-0.447,685.0077,907.1354)" fill="rgb(200,200,200)" fill-opacity="0.5"></path>
<path d="M0 0L1569.3 523.1" transform="matrix(0.294,0,0,0.294,384,756.6316)" fill="none" stroke="rgb(200,200,200)" stroke-width="17.008463541666668" stroke-opacity="0.5"></path>
<path d="M0 0L6.6667 10L0 7.5L-6.6667 10L0 0Z" transform="matrix(-0.316,0.949,-0.949,-0.316,845.3355,910.4101)" fill="rgb(200,200,200)" fill-opacity="0.5"></path>
<path d="M0 0L3216.1 536" transform="matrix(0.294,0,0,0.294,384,756.6316)" fill="none" stroke="rgb(200,200,200)" stroke-width="17.008463541666668" stroke-opacity="0.5"></path>
<path d="M0 0L6.6667 10L0 7.5L-6.6667 10L0 0Z" transform="matrix(-0.164,0.986,-0.986,-0.164,1329.4454,914.2058)" fill="rgb(200,200,200)" fill-opacity="0.5"></path>
<path d="M0 0L4315.6 539.5" transform="matrix(0.294,0,0,0.294,384,756.6316)" fill="none" stroke="rgb(200,200,200)" stroke-width="17.008463541666668" stroke-opacity="0.5"></path>
<path d="M0 0L6.6667 10L0 7.5L-6.6667 10L0 0Z" transform="matrix(-0.124,0.992,-0.992,-0.124,1652.6667,915.2149)" fill="rgb(200,200,200)" fill-opacity="0.5"></path>
<path d="M1 0A1 1 0 1 1 1 -0.01" transform="matrix(25,0,0,25,1677.4737,1080)" fill="#5470c6"></path>
<path d="M1 0A1 1 0 1 1 1 -0.01" transform="matrix(25,0,0,25,1677.4737,1241.6842)" fill="#5470c6"></path>
<path d="M1 0A1 1 0 1 1 1 -0.01" transform="matrix(25,0,0,25,1839.1579,1080)" fill="#5470c6"></path>
<path d="M1 0A1 1 0 1 1 1 -0.01" transform="matrix(25,0,0,25,2000.8421,1080)" fill="#5470c6"></path>
<path d="M1 0A1 1 0 1 1 1 -0.01" transform="matrix(25,0,0,25,2162.5263,1080)" fill="#5470c6"></path>
<path d="M1 0A1 1 0 1 1 1 -0.01" transform="matrix(25,0,0,25,2324.2105,1080)" fill="#5470c6"></path>
<path d="M1 0A1 1 0 1 1 1 -0.01" transform="matrix(25,0,0,25,2485.8947,1080)" fill="#5470c6"></path>
<path d="M1 0A1 1 0 1 1 1 -0.01" transform="matrix(25,0,0,25,2647.5789,1080)" fill="#5470c6"></path>
<path d="M1 0A1 1 0 1 1 1 -0.01" transform="matrix(25,0,0,25,2809.2632,1080)" fill="#5470c6"></path>
<path d="M1 0A1 1 0 1 1 1 -0.01" transform="matrix(25,0,0,25,869.0526,1080)" fill="#5470c6"></path>
<path d="M1 0A1 1 0 1 1 1 -0.01" transform="matrix(25,0,0,25,2970.9474,1080)" fill="#5470c6"></path>
<path d="M1 0A1 1 0 1 1 1 -0.01" transform="matrix(25,0,0,25,384,918.3158)" fill="#5470c6"></path>
<path d="M1 0A1 1 0 1 1 1 -0.01" transform="matrix(25,0,0,25,384,1080)" fill="#5470c6"></path>
<path d="M1 0A1 1 0 1 1 1 -0.01" transform="matrix(25,0,0,25,1030.7368,1241.6842)" fill="#5470c6"></path>
<path d="M1 0A1 1 0 1 1 1 -0.01" transform="matrix(25,0,0,25,1030.7368,1080)" fill="#5470c6"></path>
<path d="M1 0A1 1 0 1 1 1 -0.01" transform="matrix(25,0,0,25,707.3684,918.3158)" fill="#5470c6"></path>
<path d="M1 0A1 1 0 1 1 1 -0.01" transform="matrix(25,0,0,25,3132.6316,1080)" fill="#5470c6"></path>
<path d="M1 0A1 1 0 1 1 1 -0.01" transform="matrix(25,0,0,25,1030.7368,1403.3684)" fill="#5470c6"></path>
<path d="M1 0A1 1 0 1 1 1 -0.01" transform="matrix(25,0,0,25,869.0526,918.3158)" fill="#5470c6"></path>
<path d="M1 0A1 1 0 1 1 1 -0.01" transform="matrix(25,0,0,25,1354.1053,918.3158)" fill="#5470c6"></path>
<path d="M1 0A1 1 0 1 1 1 -0.01" transform="matrix(25,0,0,25,1354.1053,1080)" fill="#5470c6"></path>
<path d="M1 0A1 1 0 1 1 1 -0.01" transform="matrix(25,0,0,25,1677.4737,918.3158)" fill="#5470c6"></path>
<path d="M1 0A1 1 0 1 1 1 -0.01" transform="matrix(25,0,0,25,1515.7895,1080)" fill="#5470c6"></path>
<path d="M1 0A1 1 0 1 1 1 -0.01" transform="matrix(25,0,0,25,3294.3158,1080)" fill="#5470c6"></path>
<path d="M1 0A1 1 0 1 1 1 -0.01" transform="matrix(25,0,0,25,1192.4211,1403.3684)" fill="#5470c6"></path>
<path d="M1 0A1 1 0 1 1 1 -0.01" transform="matrix(25,0,0,25,3456,1080)" fill="#5470c6"></path>
<path d="M1 0A1 1 0 1 1 1 -0.01" transform="matrix(25,0,0,25,545.6842,1080)" fill="#5470c6"></path>
<path d="M1 0A1 1 0 1 1 1 -0.01" transform="matrix(25,0,0,25,384,756.6316)" fill="#5470c6"></path>
<text dominant-baseline="central" text-anchor="middle" style="font-size:12px;font-family:sans-serif;" transform="translate(1677.4737 1080)" fill="#eee" stroke="#5470c6" stroke-width="2" paint-order="stroke" stroke-miterlimit="2">@cspotcode/source-map-support@0.8.1</text>
<text dominant-baseline="central" text-anchor="middle" style="font-size:12px;font-family:sans-serif;" transform="translate(1677.4737 1241.6842)" fill="#eee" stroke="#5470c6" stroke-width="2" paint-order="stroke" stroke-miterlimit="2">@jridgewell/trace-mapping@0.3.9</text>
<text dominant-baseline="central" text-anchor="middle" style="font-size:12px;font-family:sans-serif;" transform="translate(1839.1579 1080)" fill="#eee" stroke="#5470c6" stroke-width="2" paint-order="stroke" stroke-miterlimit="2">@tsconfig/node10@1.0.9</text>
<text dominant-baseline="central" text-anchor="middle" style="font-size:12px;font-family:sans-serif;" transform="translate(2000.8421 1080)" fill="#eee" stroke="#5470c6" stroke-width="2" paint-order="stroke" stroke-miterlimit="2">@tsconfig/node12@1.0.11</text>
<text dominant-baseline="central" text-anchor="middle" style="font-size:12px;font-family:sans-serif;" transform="translate(2162.5263 1080)" fill="#eee" stroke="#5470c6" stroke-width="2" paint-order="stroke" stroke-miterlimit="2">@tsconfig/node14@1.0.3</text>
<text dominant-baseline="central" text-anchor="middle" style="font-size:12px;font-family:sans-serif;" transform="translate(2324.2105 1080)" fill="#eee" stroke="#5470c6" stroke-width="2" paint-order="stroke" stroke-miterlimit="2">@tsconfig/node16@1.0.4</text>
<text dominant-baseline="central" text-anchor="middle" style="font-size:12px;font-family:sans-serif;" transform="translate(2485.8947 1080)" fill="#eee" stroke="#5470c6" stroke-width="2" paint-order="stroke" stroke-miterlimit="2">acorn-walk@8.2.0</text>
<text dominant-baseline="central" text-anchor="middle" style="font-size:12px;font-family:sans-serif;" transform="translate(2647.5789 1080)" fill="#eee" stroke="#5470c6" stroke-width="2" paint-order="stroke" stroke-miterlimit="2">arg@4.1.3</text>
<text dominant-baseline="central" text-anchor="middle" style="font-size:12px;font-family:sans-serif;" transform="translate(2809.2632 1080)" fill="#eee" stroke="#5470c6" stroke-width="2" paint-order="stroke" stroke-miterlimit="2">create-require@1.1.1</text>
<text dominant-baseline="central" text-anchor="middle" style="font-size:12px;font-family:sans-serif;" transform="translate(869.0526 1080)" fill="#eee" stroke="#5470c6" stroke-width="2" paint-order="stroke" stroke-miterlimit="2">data-uri-to-buffer@4.0.1</text>
<text dominant-baseline="central" text-anchor="middle" style="font-size:12px;font-family:sans-serif;" transform="translate(2970.9474 1080)" fill="#eee" stroke="#5470c6" stroke-width="2" paint-order="stroke" stroke-miterlimit="2">diff@4.0.2</text>
<text dominant-baseline="central" text-anchor="middle" style="font-size:12px;font-family:sans-serif;" transform="translate(384 918.3158)" fill="#eee" stroke="#5470c6" stroke-width="2" paint-order="stroke" stroke-miterlimit="2">echarts@5.4.3</text>
<text dominant-baseline="central" text-anchor="middle" style="font-size:12px;font-family:sans-serif;" transform="translate(384 1080)" fill="#eee" stroke="#5470c6" stroke-width="2" paint-order="stroke" stroke-miterlimit="2">tslib@2.3.0</text>
<text dominant-baseline="central" text-anchor="middle" style="font-size:12px;font-family:sans-serif;" transform="translate(1030.7368 1241.6842)" fill="#eee" stroke="#5470c6" stroke-width="2" paint-order="stroke" stroke-miterlimit="2">fetch-blob@3.2.0</text>
<text dominant-baseline="central" text-anchor="middle" style="font-size:12px;font-family:sans-serif;" transform="translate(1030.7368 1080)" fill="#eee" stroke="#5470c6" stroke-width="2" paint-order="stroke" stroke-miterlimit="2">formdata-polyfill@4.0.10</text>
<text dominant-baseline="central" text-anchor="middle" style="font-size:12px;font-family:sans-serif;" transform="translate(707.3684 918.3158)" fill="#eee" stroke="#5470c6" stroke-width="2" paint-order="stroke" stroke-miterlimit="2">fs@0.0.1-security</text>
<text dominant-baseline="central" text-anchor="middle" style="font-size:12px;font-family:sans-serif;" transform="translate(3132.6316 1080)" fill="#eee" stroke="#5470c6" stroke-width="2" paint-order="stroke" stroke-miterlimit="2">make-error@1.3.6</text>
<text dominant-baseline="central" text-anchor="middle" style="font-size:12px;font-family:sans-serif;" transform="translate(1030.7368 1403.3684)" fill="#eee" stroke="#5470c6" stroke-width="2" paint-order="stroke" stroke-miterlimit="2">node-domexception@1.0.0</text>
<text dominant-baseline="central" text-anchor="middle" style="font-size:12px;font-family:sans-serif;" transform="translate(869.0526 918.3158)" fill="#eee" stroke="#5470c6" stroke-width="2" paint-order="stroke" stroke-miterlimit="2">node-fetch@3.3.2</text>
<text dominant-baseline="central" text-anchor="middle" style="font-size:12px;font-family:sans-serif;" transform="translate(1354.1053 918.3158)" fill="#eee" stroke="#5470c6" stroke-width="2" paint-order="stroke" stroke-miterlimit="2">path@0.12.7</text>
<text dominant-baseline="central" text-anchor="middle" style="font-size:12px;font-family:sans-serif;" transform="translate(1354.1053 1080)" fill="#eee" stroke="#5470c6" stroke-width="2" paint-order="stroke" stroke-miterlimit="2">process@0.11.10</text>
<text dominant-baseline="central" text-anchor="middle" style="font-size:12px;font-family:sans-serif;" transform="translate(1677.4737 918.3158)" fill="#eee" stroke="#5470c6" stroke-width="2" paint-order="stroke" stroke-miterlimit="2">ts-node@10.9.1</text>
<text dominant-baseline="central" text-anchor="middle" style="font-size:12px;font-family:sans-serif;" transform="translate(1515.7895 1080)" fill="#eee" stroke="#5470c6" stroke-width="2" paint-order="stroke" stroke-miterlimit="2">util@0.10.4</text>
<text dominant-baseline="central" text-anchor="middle" style="font-size:12px;font-family:sans-serif;" transform="translate(3294.3158 1080)" fill="#eee" stroke="#5470c6" stroke-width="2" paint-order="stroke" stroke-miterlimit="2">v8-compile-cache-lib@3.0.1</text>
<text dominant-baseline="central" text-anchor="middle" style="font-size:12px;font-family:sans-serif;" transform="translate(1192.4211 1403.3684)" fill="#eee" stroke="#5470c6" stroke-width="2" paint-order="stroke" stroke-miterlimit="2">web-streams-polyfill@3.2.1</text>
<text dominant-baseline="central" text-anchor="middle" style="font-size:12px;font-family:sans-serif;" transform="translate(3456 1080)" fill="#eee" stroke="#5470c6" stroke-width="2" paint-order="stroke" stroke-miterlimit="2">yn@3.1.1</text>
<text dominant-baseline="central" text-anchor="middle" style="font-size:12px;font-family:sans-serif;" transform="translate(545.6842 1080)" fill="#eee" stroke="#5470c6" stroke-width="2" paint-order="stroke" stroke-miterlimit="2">zrender@5.4.4</text>
<text dominant-baseline="central" text-anchor="middle" style="font-size:12px;font-family:sans-serif;" transform="translate(384 756.6316)" fill="#eee" stroke="#5470c6" stroke-width="2" paint-order="stroke" stroke-miterlimit="2">dependency-resolver@1.0.0</text>
<path d="M-5 -5l229.1 0l0 28l-229.1 0Z" transform="translate(5 5)" fill="rgb(0,0,0)" fill-opacity="0" stroke="#ccc" stroke-width="0"></path>
<text dominant-baseline="central" text-anchor="start" style="font-size:18px;font-family:sans-serif;font-weight:bold;" xml:space="preserve" y="9" transform="translate(5 5)" fill="#464646">dependency resolver graph</text>
</svg>