<svg width="8600" height="4050" xmlns="http://www.w3.org/2000/svg" xmlns:xlink="http://www.w3.org/1999/xlink" version="1.1" baseProfile="full" viewBox="0 0 8600 4050">
<rect width="8600" height="4050" x="0" y="0" id="0" fill="none"></rect>
<path d="M3600.5 2100L3600.5 3117.6" transform="matrix(0.771,0,0,0.771,1002.1429,405)" fill="none" stroke="rgb(200,200,200)" stroke-width="6.481481481481482" stroke-opacity="0.5"></path>
<path d="M0 0L6.6667 10L0 7.5L-6.6667 10L0 0Z" transform="matrix(-1,0,0,-1,3779.2857,2810)" fill="rgb(200,200,200)" fill-opacity="0.5"></path>
<path d="M0.5 1050L0.5 2067.6" transform="matrix(0.771,0,0,0.771,1002.1429,405)" fill="none" stroke="rgb(200,200,200)" stroke-width="6.481481481481482" stroke-opacity="0.5"></path>
<path d="M0 0L6.6667 10L0 7.5L-6.6667 10L0 0Z" transform="matrix(-1,0,0,-1,1002.1429,2000)" fill="rgb(200,200,200)" fill-opacity="0.5"></path>
<path d="M0 1050L437.2 2070.2" transform="matrix(0.771,0,0,0.771,1002.1429,405)" fill="none" stroke="rgb(200,200,200)" stroke-width="6.481481481481482" stroke-opacity="0.5"></path>
<path d="M0 0L6.6667 10L0 7.5L-6.6667 10L0 0Z" transform="matrix(-0.919,0.394,-0.394,-0.919,1339.4377,2002.0214)" fill="rgb(200,200,200)" fill-opacity="0.5"></path>
<path d="M1800.5 3150L1800.5 4167.6" transform="matrix(0.771,0,0,0.771,1002.1429,405)" fill="none" stroke="rgb(200,200,200)" stroke-width="6.481481481481482" stroke-opacity="0.5"></path>
<path d="M0 0L6.6667 10L0 7.5L-6.6667 10L0 0Z" transform="matrix(-1,0,0,-1,2390.7143,3620)" fill="rgb(200,200,200)" fill-opacity="0.5"></path>
<path d="M1800 3150L2237.2 4170.2" transform="matrix(0.771,0,0,0.771,1002.1429,405)" fill="none" stroke="rgb(200,200,200)" stroke-width="6.481481481481482" stroke-opacity="0.5"></path>
<path d="M0 0L6.6667 10L0 7.5L-6.6667 10L0 0Z" transform="matrix(-0.919,0.394,-0.394,-0.919,2728.0092,3622.0214)" fill="rgb(200,200,200)" fill-opacity="0.5"></path>
<path d="M1800.5 2100L1800.5 3117.6" transform="matrix(0.771,0,0,0.771,1002.1429,405)" fill="none" stroke="rgb(200,200,200)" stroke-width="6.481481481481482" stroke-opacity="0.5"></path>
<path d="M0 0L6.6667 10L0 7.5L-6.6667 10L0 0Z" transform="matrix(-1,0,0,-1,2390.7143,2810)" fill="rgb(200,200,200)" fill-opacity="0.5"></path>
<path d="M1350.5 1050L1350.5 2067.6" transform="matrix(0.771,0,0,0.771,1002.1429,405)" fill="none" stroke="rgb(200,200,200)" stroke-width="6.481481481481482" stroke-opacity="0.5"></path>
<path d="M0 0L6.6667 10L0 7.5L-6.6667 10L0 0Z" transform="matrix(-1,0,0,-1,2043.5714,2000)" fill="rgb(200,200,200)" fill-opacity="0.5"></path>
<path d="M1350 1050L1793.2 3118.3" transform="matrix(0.771,0,0,0.771,1002.1429,405)" fill="none" stroke="rgb(200,200,200)" stroke-width="6.481481481481482" stroke-opacity="0.5"></path>
<path d="M0 0L6.6667 10L0 7.5L-6.6667 10L0 0Z" transform="matrix(-0.978,0.21,-0.21,-0.978,2385.4761,2810.5549)" fill="rgb(200,200,200)" fill-opacity="0.5"></path>
<path d="M1350 1050L1787.2 2070.2" transform="matrix(0.771,0,0,0.771,1002.1429,405)" fill="none" stroke="rgb(200,200,200)" stroke-width="6.481481481481482" stroke-opacity="0.5"></path>
<path d="M0 0L6.6667 10L0 7.5L-6.6667 10L0 0Z" transform="matrix(-0.919,0.394,-0.394,-0.919,2380.8663,2002.0214)" fill="rgb(200,200,200)" fill-opacity="0.5"></path>
<path d="M2700.5 1050L2700.5 2067.6" transform="matrix(0.771,0,0,0.771,1002.1429,405)" fill="none" stroke="rgb(200,200,200)" stroke-width="6.481481481481482" stroke-opacity="0.5"></path>
<path d="M0 0L6.6667 10L0 7.5L-6.6667 10L0 0Z" transform="matrix(-1,0,0,-1,3085,2000)" fill="rgb(200,200,200)" fill-opacity="0.5"></path>
<path d="M2700 1050L3137.2 2070.2" transform="matrix(0.771,0,0,0.771,1002.1429,405)" fill="none" stroke="rgb(200,200,200)" stroke-width="6.481481481481482" stroke-opacity="0.5"></path>
<path d="M0 0L6.6667 10L0 7.5L-6.6667 10L0 0Z" transform="matrix(-0.919,0.394,-0.394,-0.919,3422.2949,2002.0214)" fill="rgb(200,200,200)" fill-opacity="0.5"></path>
<path d="M3600.5 1050L3600.5 2067.6" transform="matrix(0.771,0,0,0.771,1002.1429,405)" fill="none" stroke="rgb(200,200,200)" stroke-width="6.481481481481482" stroke-opacity="0.5"></path>
<path d="M0 0L6.6667 10L0 7.5L-6.6667 10L0 0Z" transform="matrix(-1,0,0,-1,3779.2857,2000)" fill="rgb(200,200,200)" fill-opacity="0.5"></path>
<path d="M3600 1050L4037.2 2070.2" transform="matrix(0.771,0,0,0.771,1002.1429,405)" fill="none" stroke="rgb(200,200,200)" stroke-width="6.481481481481482" stroke-opacity="0.5"></path>
<path d="M0 0L6.6667 10L0 7.5L-6.6667 10L0 0Z" transform="matrix(-0.919,0.394,-0.394,-0.919,4116.5806,2002.0214)" fill="rgb(200,200,200)" fill-opacity="0.5"></path>
<path d="M3600 1050L4478.9 2075.4" transform="matrix(0.771,0,0,0.771,1002.1429,405)" fill="none" stroke="rgb(200,200,200)" stroke-width="6.481481481481482" stroke-opacity="0.5"></path>
<path d="M0 0L6.6667 10L0 7.5L-6.6667 10L0 0Z" transform="matrix(-0.759,0.651,-0.651,-0.759,4457.3016,2006.0186)" fill="rgb(200,200,200)" fill-opacity="0.5"></path>
<path d="M3600 1050L4924.4 2080.1" transform="matrix(0.771,0,0,0.771,1002.1429,405)" fill="none" stroke="rgb(200,200,200)" stroke-width="6.481481481481482" stroke-opacity="0.5"></path>
<path d="M0 0L6.6667 10L0 7.5L-6.6667 10L0 0Z" transform="matrix(-0.614,0.789,-0.789,-0.614,4800.9805,2009.6515)" fill="rgb(200,200,200)" fill-opacity="0.5"></path>
<path d="M3600 1050L5372 2083.7" transform="matrix(0.771,0,0,0.771,1002.1429,405)" fill="none" stroke="rgb(200,200,200)" stroke-width="6.481481481481482" stroke-opacity="0.5"></path>
<path d="M0 0L6.6667 10L0 7.5L-6.6667 10L0 0Z" transform="matrix(-0.504,0.864,-0.864,-0.504,5146.2627,2012.4032)" fill="rgb(200,200,200)" fill-opacity="0.5"></path>
<path d="M3600 1050L5820.6 2086.3" transform="matrix(0.771,0,0,0.771,1002.1429,405)" fill="none" stroke="rgb(200,200,200)" stroke-width="6.481481481481482" stroke-opacity="0.5"></path>
<path d="M0 0L6.6667 10L0 7.5L-6.6667 10L0 0Z" transform="matrix(-0.423,0.906,-0.906,-0.423,5492.3454,2014.4279)" fill="rgb(200,200,200)" fill-opacity="0.5"></path>
<path d="M3600 1050L6269.8 2088.3" transform="matrix(0.771,0,0,0.771,1002.1429,405)" fill="none" stroke="rgb(200,200,200)" stroke-width="6.481481481481482" stroke-opacity="0.5"></path>
<path d="M0 0L6.6667 10L0 7.5L-6.6667 10L0 0Z" transform="matrix(-0.362,0.932,-0.932,-0.362,5838.8427,2015.9388)" fill="rgb(200,200,200)" fill-opacity="0.5"></path>
<path d="M3600 1050L6719.3 2089.8" transform="matrix(0.771,0,0,0.771,1002.1429,405)" fill="none" stroke="rgb(200,200,200)" stroke-width="6.481481481481482" stroke-opacity="0.5"></path>
<path d="M0 0L6.6667 10L0 7.5L-6.6667 10L0 0Z" transform="matrix(-0.316,0.949,-0.949,-0.316,6185.5686,2017.0943)" fill="rgb(200,200,200)" fill-opacity="0.5"></path>
<path d="M3600 1050L7168.9 2090.9" transform="matrix(0.771,0,0,0.771,1002.1429,405)" fill="none" stroke="rgb(200,200,200)" stroke-width="6.481481481481482" stroke-opacity="0.5"></path>
<path d="M0 0L6.6667 10L0 7.5L-6.6667 10L0 0Z" transform="matrix(-0.28,0.96,-0.96,-0.28,6532.4286,2018)" fill="rgb(200,200,200)" fill-opacity="0.5"></path>
<path d="M3600 1050L7618.6 2091.9" transform="matrix(0.771,0,0,0.771,1002.1429,405)" fill="none" stroke="rgb(200,200,200)" stroke-width="6.481481481481482" stroke-opacity="0.5"></path>
<path d="M0 0L6.6667 10L0 7.5L-6.6667 10L0 0Z" transform="matrix(-0.251,0.968,-0.968,-0.251,6879.3715,2018.7259)" fill="rgb(200,200,200)" fill-opacity="0.5"></path>
<path d="M3600 1050L8068.4 2092.6" transform="matrix(0.771,0,0,0.771,1002.1429,405)" fill="none" stroke="rgb(200,200,200)" stroke-width="6.481481481481482" stroke-opacity="0.5"></path>
<path d="M0 0L6.6667 10L0 7.5L-6.6667 10L0 0Z" transform="matrix(-0.227,0.974,-0.974,-0.227,7226.3683,2019.3193)" fill="rgb(200,200,200)" fill-opacity="0.5"></path>
<path d="M3600 1050L8518.3 2093.3" transform="matrix(0.771,0,0,0.771,1002.1429,405)" fill="none" stroke="rgb(200,200,200)" stroke-width="6.481481481481482" stroke-opacity="0.5"></path>
<path d="M0 0L6.6667 10L0 7.5L-6.6667 10L0 0Z" transform="matrix(-0.208,0.978,-0.978,-0.208,7573.4013,2019.8124)" fill="rgb(200,200,200)" fill-opacity="0.5"></path>
<path d="M450 2100.5L32.4 2100.5" transform="matrix(0.771,0,0,0.771,1002.1429,405)" fill="none" stroke="rgb(200,200,200)" stroke-width="6.481481481481482" stroke-opacity="0.5"></path>
<path d="M0 0L6.6667 10L0 7.5L-6.6667 10L0 0Z" transform="matrix(0,-1,1,0,1027.1429,2025)" fill="rgb(200,200,200)" fill-opacity="0.5"></path>
<path d="M0.5 0L0.5 1017.6" transform="matrix(0.771,0,0,0.771,1002.1429,405)" fill="none" stroke="rgb(200,200,200)" stroke-width="6.481481481481482" stroke-opacity="0.5"></path>
<path d="M0 0L6.6667 10L0 7.5L-6.6667 10L0 0Z" transform="matrix(-1,0,0,-1,1002.1429,1190)" fill="rgb(200,200,200)" fill-opacity="0.5"></path>
<path d="M0 0L878.9 1025.4" transform="matrix(0.771,0,0,0.771,1002.1429,405)" fill="none" stroke="rgb(200,200,200)" stroke-width="6.481481481481482" stroke-opacity="0.5"></path>
<path d="M0 0L6.6667 10L0 7.5L-6.6667 10L0 0Z" transform="matrix(-0.759,0.651,-0.651,-0.759,1680.1588,1196.0186)" fill="rgb(200,200,200)" fill-opacity="0.5"></path>
<path d="M0 0L1324.4 1030.1" transform="matrix(0.771,0,0,0.771,1002.1429,405)" fill="none" stroke="rgb(200,200,200)" stroke-width="6.481481481481482" stroke-opacity="0.5"></path>
<path d="M0 0L6.6667 10L0 7.5L-6.6667 10L0 0Z" transform="matrix(-0.614,0.789,-0.789,-0.614,2023.8376,1199.6515)" fill="rgb(200,200,200)" fill-opacity="0.5"></path>
<path d="M0 0L2669.8 1038.3" transform="matrix(0.771,0,0,0.771,1002.1429,405)" fill="none" stroke="rgb(200,200,200)" stroke-width="6.481481481481482" stroke-opacity="0.5"></path>
<path d="M0 0L6.6667 10L0 7.5L-6.6667 10L0 0Z" transform="matrix(-0.362,0.932,-0.932,-0.362,3061.6999,1205.9388)" fill="rgb(200,200,200)" fill-opacity="0.5"></path>
<path d="M0 0L3568.9 1040.9" transform="matrix(0.771,0,0,0.771,1002.1429,405)" fill="none" stroke="rgb(200,200,200)" stroke-width="6.481481481481482" stroke-opacity="0.5"></path>
<path d="M0 0L6.6667 10L0 7.5L-6.6667 10L0 0Z" transform="matrix(-0.28,0.96,-0.96,-0.28,3755.2857,1208)" fill="rgb(200,200,200)" fill-opacity="0.5"></path>
<path d="M1 0A1 1 0 1 1 1 -0.01" transform="matrix(25,0,0,25,3779.2857,2025)" fill="#5470c6"></path>
<path d="M1 0A1 1 0 1 1 1 -0.01" transform="matrix(25,0,0,25,3779.2857,2835)" fill="#5470c6"></path>
<path d="M1 0A1 1 0 1 1 1 -0.01" transform="matrix(25,0,0,25,4126.4286,2025)" fill="#5470c6"></path>
<path d="M1 0A1 1 0 1 1 1 -0.01" transform="matrix(25,0,0,25,4473.5714,2025)" fill="#5470c6"></path>
<path d="M1 0A1 1 0 1 1 1 -0.01" transform="matrix(25,0,0,25,4820.7143,2025)" fill="#5470c6"></path>
<path d="M1 0A1 1 0 1 1 1 -0.01" transform="matrix(25,0,0,25,5167.8571,2025)" fill="#5470c6"></path>
<path d="M1 0A1 1 0 1 1 1 -0.01" transform="matrix(25,0,0,25,5515,2025)" fill="#5470c6"></path>
<path d="M1 0A1 1 0 1 1 1 -0.01" transform="matrix(25,0,0,25,5862.1429,2025)" fill="#5470c6"></path>
<path d="M1 0A1 1 0 1 1 1 -0.01" transform="matrix(25,0,0,25,6209.2857,2025)" fill="#5470c6"></path>
<path d="M1 0A1 1 0 1 1 1 -0.01" transform="matrix(25,0,0,25,2043.5714,2025)" fill="#5470c6"></path>
<path d="M1 0A1 1 0 1 1 1 -0.01" transform="matrix(25,0,0,25,6556.4286,2025)" fill="#5470c6"></path>
<path d="M1 0A1 1 0 1 1 1 -0.01" transform="matrix(25,0,0,25,1002.1429,1215)" fill="#5470c6"></path>
<path d="M1 0A1 1 0 1 1 1 -0.01" transform="matrix(25,0,0,25,1002.1429,2025)" fill="#5470c6"></path>
<path d="M1 0A1 1 0 1 1 1 -0.01" transform="matrix(25,0,0,25,2390.7143,2835)" fill="#5470c6"></path>
<path d="M1 0A1 1 0 1 1 1 -0.01" transform="matrix(25,0,0,25,2390.7143,2025)" fill="#5470c6"></path>
<path d="M1 0A1 1 0 1 1 1 -0.01" transform="matrix(25,0,0,25,1696.4286,1215)" fill="#5470c6"></path>
<path d="M1 0A1 1 0 1 1 1 -0.01" transform="matrix(25,0,0,25,6903.5714,2025)" fill="#5470c6"></path>
<path d="M1 0A1 1 0 1 1 1 -0.01" transform="matrix(25,0,0,25,2390.7143,3645)" fill="#5470c6"></path>
<path d="M1 0A1 1 0 1 1 1 -0.01" transform="matrix(25,0,0,25,2043.5714,1215)" fill="#5470c6"></path>
<path d="M1 0A1 1 0 1 1 1 -0.01" transform="matrix(25,0,0,25,3085,1215)" fill="#5470c6"></path>
<path d="M1 0A1 1 0 1 1 1 -0.01" transform="matrix(25,0,0,25,3085,2025)" fill="#5470c6"></path>
<path d="M1 0A1 1 0 1 1 1 -0.01" transform="matrix(25,0,0,25,3779.2857,1215)" fill="#5470c6"></path>
<path d="M1 0A1 1 0 1 1 1 -0.01" transform="matrix(25,0,0,25,3432.1429,2025)" fill="#5470c6"></path>
<path d="M1 0A1 1 0 1 1 1 -0.01" transform="matrix(25,0,0,25,7250.7143,2025)" fill="#5470c6"></path>
<path d="M1 0A1 1 0 1 1 1 -0.01" transform="matrix(25,0,0,25,2737.8571,3645)" fill="#5470c6"></path>
<path d="M1 0A1 1 0 1 1 1 -0.01" transform="matrix(25,0,0,25,7597.8571,2025)" fill="#5470c6"></path>
<path d="M1 0A1 1 0 1 1 1 -0.01" transform="matrix(25,0,0,25,1349.2857,2025)" fill="#5470c6"></path>
<path d="M1 0A1 1 0 1 1 1 -0.01" transform="matrix(25,0,0,25,1002.1429,405)" fill="#5470c6"></path>
<text dominant-baseline="central" text-anchor="middle" style="font-size:12px;font-family:sans-serif;" transform="translate(3779.2857 2025)" fill="#eee" stroke="#5470c6" stroke-width="2" paint-order="stroke" stroke-miterlimit="2">@cspotcode/source-map-support@0.8.1</text>
<text dominant-baseline="central" text-anchor="middle" style="font-size:12px;font-family:sans-serif;" transform="translate(3779.2857 2835)" fill="#eee" stroke="#5470c6" stroke-width="2" paint-order="stroke" stroke-miterlimit="2">@jridgewell/trace-mapping@0.3.9</text>
<text dominant-baseline="central" text-anchor="middle" style="font-size:12px;font-family:sans-serif;" transform="translate(4126.4286 2025)" fill="#eee" stroke="#5470c6" stroke-width="2" paint-order="stroke" stroke-miterlimit="2">@tsconfig/node10@1.0.9</text>
<text dominant-baseline="central" text-anchor="middle" style="font-size:12px;font-family:sans-serif;" transform="translate(4473.5714 2025)" fill="#eee" stroke="#5470c6" stroke-width="2" paint-order="stroke" stroke-miterlimit="2">@tsconfig/node12@1.0.11</text>
<text dominant-baseline="central" text-anchor="middle" style="font-size:12px;font-family:sans-serif;" transform="translate(4820.7143 2025)" fill="#eee" stroke="#5470c6" stroke-width="2" paint-order="stroke" stroke-miterlimit="2">@tsconfig/node14@1.0.3</text>
<text dominant-baseline="central" text-anchor="middle" style="font-size:12px;font-family:sans-serif;" transform="translate(5167.8571 2025)" fill="#eee" stroke="#5470c6" stroke-width="2" paint-order="stroke" stroke-miterlimit="2">@tsconfig/node16@1.0.4</text>
<text dominant-baseline="central" text-anchor="middle" style="font-size:12px;font-family:sans-serif;" transform="translate(5515 2025)" fill="#eee" stroke="#5470c6" stroke-width="2" paint-order="stroke" stroke-miterlimit="2">acorn-walk@8.2.0</text>
<text dominant-baseline="central" text-anchor="middle" style="font-size:12px;font-family:sans-serif;" transform="translate(5862.1429 2025)" fill="#eee" stroke="#5470c6" stroke-width="2" paint-order="stroke" stroke-miterlimit="2">arg@4.1.3</text>
<text dominant-baseline="central" text-anchor="middle" style="font-size:12px;font-family:sans-serif;" transform="translate(6209.2857 2025)" fill="#eee" stroke="#5470c6" stroke-width="2" paint-order="stroke" stroke-miterlimit="2">create-require@1.1.1</text>
<text dominant-baseline="central" text-anchor="middle" style="font-size:12px;font-family:sans-serif;" transform="translate(2043.5714 2025)" fill="#eee" stroke="#5470c6" stroke-width="2" paint-order="stroke" stroke-miterlimit="2">data-uri-to-buffer@4.0.1</text>
<text dominant-baseline="central" text-anchor="middle" style="font-size:12px;font-family:sans-serif;" transform="translate(6556.4286 2025)" fill="#eee" stroke="#5470c6" stroke-width="2" paint-order="stroke" stroke-miterlimit="2">diff@4.0.2</text>
<text dominant-baseline="central" text-anchor="middle" style="font-size:12px;font-family:sans-serif;" transform="translate(1002.1429 1215)" fill="#eee" stroke="#5470c6" stroke-width="2" paint-order="stroke" stroke-miterlimit="2">echarts@5.4.3</text>
<text dominant-baseline="central" text-anchor="middle" style="font-size:12px;font-family:sans-serif;" transform="translate(1002.1429 2025)" fill="#eee" stroke="#5470c6" stroke-width="2" paint-order="stroke" stroke-miterlimit="2">tslib@2.3.0</text>
<text dominant-baseline="central" text-anchor="middle" style="font-size:12px;font-family:sans-serif;" transform="translate(2390.7143 2835)" fill="#eee" stroke="#5470c6" stroke-width="2" paint-order="stroke" stroke-miterlimit="2">fetch-blob@3.2.0</text>
<text dominant-baseline="central" text-anchor="middle" style="font-size:12px;font-family:sans-serif;" transform="translate(2390.7143 2025)" fill="#eee" stroke="#5470c6" stroke-width="2" paint-order="stroke" stroke-miterlimit="2">formdata-polyfill@4.0.10</text>
<text dominant-baseline="central" text-anchor="middle" style="font-size:12px;font-family:sans-serif;" transform="translate(1696.4286 1215)" fill="#eee" stroke="#5470c6" stroke-width="2" paint-order="stroke" stroke-miterlimit="2">fs@0.0.1-security</text>
<text dominant-baseline="central" text-anchor="middle" style="font-size:12px;font-family:sans-serif;" transform="translate(6903.5714 2025)" fill="#eee" stroke="#5470c6" stroke-width="2" paint-order="stroke" stroke-miterlimit="2">make-error@1.3.6</text>
<text dominant-baseline="central" text-anchor="middle" style="font-size:12px;font-family:sans-serif;" transform="translate(2390.7143 3645)" fill="#eee" stroke="#5470c6" stroke-width="2" paint-order="stroke" stroke-miterlimit="2">node-domexception@1.0.0</text>
<text dominant-baseline="central" text-anchor="middle" style="font-size:12px;font-family:sans-serif;" transform="translate(2043.5714 1215)" fill="#eee" stroke="#5470c6" stroke-width="2" paint-order="stroke" stroke-miterlimit="2">node-fetch@3.3.2</text>
<text dominant-baseline="central" text-anchor="middle" style="font-size:12px;font-family:sans-serif;" transform="translate(3085 1215)" fill="#eee" stroke="#5470c6" stroke-width="2" paint-order="stroke" stroke-miterlimit="2">path@0.12.7</text>
<text dominant-baseline="central" text-anchor="middle" style="font-size:12px;font-family:sans-serif;" transform="translate(3085 2025)" fill="#eee" stroke="#5470c6" stroke-width="2" paint-order="stroke" stroke-miterlimit="2">process@0.11.10</text>
<text dominant-baseline="central" text-anchor="middle" style="font-size:12px;font-family:sans-serif;" transform="translate(3779.2857 1215)" fill="#eee" stroke="#5470c6" stroke-width="2" paint-order="stroke" stroke-miterlimit="2">ts-node@10.9.1</text>
<text dominant-baseline="central" text-anchor="middle" style="font-size:12px;font-family:sans-serif;" transform="translate(3432.1429 2025)" fill="#eee" stroke="#5470c6" stroke-width="2" paint-order="stroke" stroke-miterlimit="2">util@0.10.4</text>
<text dominant-baseline="central" text-anchor="middle" style="font-size:12px;font-family:sans-serif;" transform="translate(7250.7143 2025)" fill="#eee" stroke="#5470c6" stroke-width="2" paint-order="stroke" stroke-miterlimit="2">v8-compile-cache-lib@3.0.1</text>
<text dominant-baseline="central" text-anchor="middle" style="font-size:12px;font-family:sans-serif;" transform="translate(2737.8571 3645)" fill="#eee" stroke="#5470c6" stroke-width="2" paint-order="stroke" stroke-miterlimit="2">web-streams-polyfill@3.2.1</text>
<text dominant-baseline="central" text-anchor="middle" style="font-size:12px;font-family:sans-serif;" transform="translate(7597.8571 2025)" fill="#eee" stroke="#5470c6" stroke-width="2" paint-order="stroke" stroke-miterlimit="2">yn@3.1.1</text>
<text dominant-baseline="central" text-anchor="middle" style="font-size:12px;font-family:sans-serif;" transform="translate(1349.2857 2025)" fill="#eee" stroke="#5470c6" stroke-width="2" paint-order="stroke" stroke-miterlimit="2">zrender@5.4.4</text>
<text dominant-baseline="central" text-anchor="middle" style="font-size:12px;font-family:sans-serif;" transform="translate(1002.1429 405)" fill="#eee" stroke="#5470c6" stroke-width="2" paint-order="stroke" stroke-miterlimit="2">dependency-resolver@1.0.0</text>
<path d="M-5 -5l229.1 0l0 28l-229.1 0Z" transform="translate(5 5)" fill="rgb(0,0,0)" fill-opacity="0" stroke="#ccc" stroke-width="0"></path>
<text dominant-baseline="central" text-anchor="start" style="font-size:18px;font-family:sans-serif;font-weight:bold;" xml:space="preserve" y="9" transform="translate(5 5)" fill="#464646">dependency resolver graph</text>
</svg>